<svg width="159" height="43" viewBox="0 0 159 43" fill="none" xmlns="http://www.w3.org/2000/svg">
<path d="M20.1204 23.3651C20.2984 20.1889 21.8538 17.3907 24.2002 15.407C26.5013 13.4587 29.5985 12.2678 32.9779 12.2678C36.354 12.2678 39.4512 13.4587 41.754 15.407C44.0987 17.3907 45.6541 20.1889 45.8338 23.3617C46.0118 26.6252 44.7001 29.6569 42.399 31.9043C40.0525 34.1903 36.7151 35.6247 32.9779 35.6247C29.2408 35.6247 25.8966 34.1903 23.5519 31.9043C21.2491 29.6569 19.9407 26.6253 20.1204 23.3651Z" fill="white"/>
<path d="M26.3811 23.6501C26.4724 22.0204 27.2705 20.5846 28.4745 19.5668C29.6552 18.5671 31.2444 17.9561 32.9784 17.9561C34.7106 17.9561 36.2999 18.5671 37.4814 19.5668C38.6845 20.5846 39.4826 22.0204 39.5748 23.6484C39.6661 25.3229 38.9931 26.8785 37.8124 28.0316C36.6084 29.2046 34.8959 29.9406 32.9784 29.9406C31.0608 29.9406 29.3449 29.2046 28.1418 28.0316C26.9602 26.8785 26.2889 25.3229 26.3811 23.6501Z" fill="#265787"/>
<path d="M15.8755 26.9432C15.8867 27.581 16.0901 28.8203 16.3952 29.7881C17.0364 31.8367 18.124 33.7318 19.6374 35.4021C21.1904 37.1188 23.1028 38.4977 25.3116 39.4768C27.6334 40.5049 30.1491 41.0289 32.7621 41.0246C35.3709 41.0212 37.8866 40.4868 40.2083 39.4509C42.4172 38.4624 44.3278 37.0775 45.8783 35.3598C47.3908 33.6827 48.4767 31.7841 49.1196 29.7356C49.4428 28.7005 49.647 27.6499 49.7289 26.5959C49.8091 25.5574 49.7755 24.5172 49.6281 23.4778C49.3402 21.4525 48.6396 19.5522 47.5605 17.8199C46.5738 16.2281 45.3017 14.8346 43.7892 13.6616L43.7927 13.659L28.5288 1.93907C28.515 1.92873 28.5039 1.91754 28.4892 1.90806C27.4878 1.13931 25.8037 1.1419 24.7023 1.91238C23.5889 2.69147 23.4613 3.97988 24.4524 4.79258L24.4481 4.79689L30.8144 9.97387L11.4104 9.99457H11.3845C9.78067 9.99629 8.23886 11.0486 7.93377 12.3784C7.62007 13.7332 8.70941 14.857 10.377 14.863L10.3745 14.8691L20.2096 14.8501L2.65939 28.3213C2.63698 28.3377 2.61285 28.3549 2.59216 28.3713C0.936593 29.639 0.401411 31.7471 1.44422 33.0812C2.50254 34.4377 4.75277 34.4403 6.42558 33.0889L16.0039 25.2497C16.0039 25.2497 15.8643 26.3081 15.8755 26.9432ZM40.4884 30.4871C38.5148 32.4977 35.7518 33.6379 32.7621 33.6439C29.7681 33.6491 27.0051 32.5193 25.0315 30.5121C24.0672 29.5339 23.3587 28.4084 22.9218 27.2096C22.4935 26.0314 22.3271 24.7809 22.4375 23.5192C22.5417 22.2859 22.9089 21.1095 23.4949 20.0452C24.0706 18.9989 24.8635 18.0535 25.8425 17.2537C27.761 15.6904 30.2034 14.8441 32.7578 14.8406C35.3149 14.8372 37.7556 15.6757 39.6757 17.2339C40.653 18.0302 41.445 18.9722 42.0207 20.0167C42.6094 21.0802 42.9739 22.2523 43.0825 23.489C43.1911 24.749 43.0248 25.9978 42.5964 27.1768C42.1586 28.3791 41.4528 29.5046 40.4884 30.4871Z" fill="#EA7600"/>
<path d="M130.953 23.6234C131.1 21.9791 132.371 20.9362 134.313 20.9362C136.257 20.9362 137.527 21.9791 137.675 23.6234H130.953ZM137.476 27.6835C136.978 28.9021 135.806 29.6235 134.215 29.6235C132.221 29.6235 130.879 28.379 130.825 26.4132H142.285V25.8349C142.285 20.9104 139.394 18.1431 134.215 18.1431C129.185 18.1431 126.144 20.9362 126.144 25.3169C126.144 29.7243 129.232 32.5132 134.215 32.5132C137.204 32.5132 139.523 31.4885 140.951 29.6872L137.476 27.6835Z" fill="#265787"/>
<path d="M80.1056 23.6311C80.2573 21.9867 81.5285 20.9439 83.4719 20.9439C85.4127 20.9439 86.683 21.9867 86.8321 23.6311H80.1056ZM86.633 27.6912C86.1349 28.9132 84.9637 29.6346 83.3685 29.6346C81.3785 29.6346 80.0332 28.3867 79.9806 26.42H91.4377V25.8451C91.4377 20.9181 88.548 18.1499 83.3685 18.1499C78.3362 18.1499 75.3009 20.9439 75.3009 25.3246C75.3009 29.732 78.388 32.5208 83.3685 32.5208C86.3573 32.5208 88.6773 31.4996 90.1088 29.6958L86.633 27.6912Z" fill="#265787"/>
<path d="M74.2745 15.1655H70.1421V32.072H74.2745V15.1655Z" fill="#265787"/>
<path d="M92.4659 19.6574H96.6217V20.664C98.0928 19.0938 99.8595 18.3 101.852 18.3C104.147 18.3 105.885 19.0938 106.782 20.4451C107.531 21.5612 107.58 22.9082 107.58 24.6784V32.072H103.418V25.5756C103.418 22.8798 102.876 21.6353 100.509 21.6353C98.1178 21.6353 96.6217 23.0599 96.6217 25.4515V32.072H92.4659V19.6574Z" fill="#265787"/>
<path d="M120.963 25.5262C120.963 27.8402 119.417 29.3579 117.025 29.3579C114.63 29.3579 113.084 27.892 113.084 25.553C113.084 23.1795 114.61 21.7144 117.025 21.7144C119.417 21.7144 120.963 23.2053 120.963 25.5262ZM120.963 20.22C119.913 19.0936 118.392 18.4756 116.279 18.4756C111.72 18.4756 108.607 21.2869 108.607 25.5004C108.607 29.6311 111.698 32.5208 116.204 32.5208C118.27 32.5208 119.787 31.9986 120.963 30.8273V32.0718H125.121V14.0933L120.963 15.1654V20.22Z" fill="#265787"/>
<path d="M60.6965 21.7144C63.113 21.7144 64.6324 23.1795 64.6324 25.553C64.6324 27.892 63.0889 29.3579 60.6965 29.3579C58.3058 29.3579 56.7614 27.8402 56.7614 25.5262C56.7614 23.2053 58.3058 21.7144 60.6965 21.7144ZM56.7614 15.1654L52.6013 14.0933V32.0718H56.7614V30.8273C57.9317 31.9986 59.4511 32.5208 61.5187 32.5208C66.0269 32.5208 69.1139 29.6311 69.1139 25.5004C69.1139 21.2869 66.0001 18.4756 61.4437 18.4756C59.3262 18.4756 57.8068 19.0936 56.7614 20.22V15.1654Z" fill="#265787"/>
<path d="M143.31 32.072V19.6574H147.469V20.4244C148.714 18.9248 150.032 18.1785 151.53 18.1785C151.828 18.1785 152.202 18.2267 152.699 18.2759V21.8154C152.298 21.7628 151.852 21.7628 151.378 21.7628C148.96 21.7628 147.469 23.3572 147.469 26.0685V32.072H143.31Z" fill="#265787"/>
<path d="M156.252 17.4459H156.4C156.506 17.4459 156.586 17.4208 156.64 17.3707C156.695 17.3206 156.722 17.249 156.722 17.1559C156.722 17.0528 156.695 16.9812 156.643 16.9411C156.591 16.8995 156.509 16.8788 156.395 16.8788H156.252V17.4459ZM157.13 17.1473C157.13 17.3922 157.021 17.559 156.801 17.6478L157.311 18.5006H156.857L156.445 17.7573H156.252V18.5006H155.846V16.5609H156.408C156.658 16.5609 156.84 16.6096 156.956 16.7069C157.072 16.8043 157.13 16.9511 157.13 17.1473ZM154.86 17.5296C154.86 17.2432 154.931 16.9747 155.074 16.7241C155.218 16.4735 155.415 16.2759 155.665 16.1313C155.916 15.9866 156.186 15.9143 156.475 15.9143C156.761 15.9143 157.03 15.9859 157.28 16.1291C157.531 16.2723 157.729 16.4692 157.873 16.7198C158.018 16.9704 158.09 17.2404 158.09 17.5296C158.09 17.8118 158.021 18.0767 157.882 18.3244C157.743 18.5722 157.548 18.7705 157.298 18.9194C157.047 19.0684 156.773 19.1428 156.475 19.1428C156.179 19.1428 155.905 19.0691 155.654 18.9216C155.404 18.7727 155.208 18.5743 155.068 18.3266C154.929 18.0788 154.86 17.8132 154.86 17.5296ZM155.124 17.5296C155.124 17.7731 155.184 17.9994 155.304 18.2084C155.426 18.4161 155.591 18.58 155.8 18.7003C156.01 18.8206 156.234 18.8808 156.475 18.8808C156.718 18.8808 156.945 18.8199 157.154 18.6982C157.363 18.575 157.527 18.4103 157.646 18.2041C157.766 17.9965 157.826 17.7717 157.826 17.5296C157.826 17.2891 157.765 17.0642 157.644 16.8552C157.523 16.6446 157.358 16.4792 157.147 16.359C156.938 16.2387 156.714 16.1785 156.475 16.1785C156.234 16.1785 156.01 16.2379 155.803 16.3568C155.596 16.4757 155.432 16.6396 155.309 16.8487C155.185 17.0578 155.124 17.2848 155.124 17.5296Z" fill="#236192"/>
</svg>
