<svg width="113" height="144" viewBox="0 0 113 144" fill="none" xmlns="http://www.w3.org/2000/svg">
<path d="M28.571 98.4744C28.302 98.4744 28.1675 98.2852 28.1675 97.9066C28.1675 97.5281 28.3638 97.1059 28.7564 96.64C29.4108 95.8539 30.3196 95.3989 31.483 95.2752L32.0828 95.2424C33.4061 95.2424 34.3658 95.7702 34.962 96.8257C35.3183 97.4735 35.4964 98.2196 35.4964 99.064C35.4964 99.4134 35.4674 99.781 35.4092 100.167C35.1983 101.463 34.6967 102.562 33.9041 103.464C33.0316 104.462 32.0137 104.96 30.8504 104.96C29.6943 104.96 28.96 104.636 28.6474 103.988C28.5528 103.785 28.5056 103.57 28.5056 103.344C28.5056 103.111 28.5674 102.867 28.691 102.613C28.9309 102.147 29.2581 101.914 29.6725 101.914C29.7089 101.914 29.7307 101.936 29.738 101.979C29.7525 102.016 29.7489 102.056 29.7271 102.099C29.7125 102.143 29.6871 102.165 29.6507 102.165C29.4035 102.165 29.189 102.325 29.0073 102.645C28.8909 102.871 28.8328 103.079 28.8328 103.268C28.8328 103.457 28.8691 103.632 28.9418 103.792C29.1745 104.287 29.7307 104.534 30.6105 104.534C31.6066 104.534 32.5081 104.025 33.3152 103.006C34.0423 102.089 34.5112 101.011 34.7221 99.7738C34.7948 99.3734 34.8312 98.9949 34.8312 98.6382C34.8312 97.8448 34.653 97.1751 34.2968 96.6291C33.8242 95.8939 33.0825 95.5263 32.0719 95.5263C30.8068 95.5263 29.8579 95.9522 29.2254 96.8038C28.9055 97.2406 28.7455 97.6482 28.7455 98.0267C28.7455 98.1796 28.7782 98.256 28.8437 98.256C28.8 98.4016 28.7092 98.4744 28.571 98.4744ZM30.1415 102.613C30.1415 101.506 30.2397 100.433 30.436 99.3916C30.6323 98.3434 30.8722 97.5172 31.1558 96.913C31.4466 96.3016 31.7265 95.9958 31.9956 95.9958C32.1119 95.9958 32.17 96.0541 32.17 96.1705C31.8429 96.8475 31.5557 97.7501 31.3085 98.8784C30.8504 100.938 30.6214 102.427 30.6214 103.344C30.6214 103.439 30.5705 103.486 30.4687 103.486C30.2506 103.486 30.1415 103.195 30.1415 102.613Z" fill="black"/>
<path d="M39.7336 100.56C39.4573 100.56 39.3191 100.258 39.3191 99.6538C39.3191 99.3117 39.3846 98.9914 39.5154 98.693C39.021 99.1224 38.4684 99.9232 37.8577 101.095C37.247 102.26 36.9416 103.02 36.9416 103.377C36.9416 103.465 36.8834 103.508 36.7671 103.508C36.5562 103.508 36.4508 103.221 36.4508 102.646C36.4508 101.561 36.5599 100.578 36.778 99.6975C36.9961 98.8167 37.2615 98.3763 37.5741 98.3763C37.7123 98.3763 37.7814 98.4564 37.7814 98.6165C37.4469 99.6793 37.207 100.768 37.0616 101.881H37.1379C37.7268 100.52 38.3776 99.4573 39.0901 98.693C39.4973 98.2562 39.8681 98.0378 40.2025 98.0378C40.2752 98.0378 40.3334 98.0597 40.377 98.1034C40.4279 98.147 40.4534 98.2016 40.4534 98.2671C40.4025 98.3181 40.3407 98.3945 40.268 98.4964C40.1953 98.5983 40.0971 98.8422 39.9735 99.228C39.8499 99.6065 39.7881 100.021 39.7881 100.473C39.7881 100.531 39.7699 100.56 39.7336 100.56Z" fill="black"/>
<path d="M41.362 103.694C40.7658 103.694 40.4677 103.224 40.4677 102.285C40.4677 101.725 40.6058 101.11 40.8821 100.44C41.2674 99.5009 41.7728 98.8603 42.3981 98.5182C42.6671 98.3726 42.9179 98.2998 43.1506 98.2998C43.3832 98.2998 43.565 98.3508 43.6959 98.4527C43.834 98.5546 43.9213 98.6565 43.9576 98.7584L44.0231 98.9003C44.0013 99.0241 43.9395 99.086 43.8377 99.086C43.7213 99.086 43.6523 99.0605 43.6304 99.0095C43.6159 98.9513 43.5977 98.904 43.5759 98.8676C43.5541 98.8239 43.5032 98.7693 43.4232 98.7038C43.3433 98.631 43.2524 98.5946 43.1506 98.5946C42.678 98.5946 42.249 99.0204 41.8636 99.8721C41.4274 100.855 41.2093 101.779 41.2093 102.646C41.2093 103.082 41.2965 103.301 41.471 103.301C41.6092 103.301 41.8018 103.148 42.0491 102.842C42.3035 102.529 42.5689 102.14 42.8452 101.674C43.3251 100.873 43.7141 100.178 44.0122 99.5882C44.2594 99.0641 44.5139 98.8021 44.7756 98.8021C44.9137 98.8021 44.9828 98.8858 44.9828 99.0532C44.9174 99.1915 44.8338 99.388 44.732 99.6428C44.6302 99.8976 44.4957 100.404 44.3284 101.161C44.1612 101.918 44.0776 102.671 44.0776 103.421C44.0776 104.171 44.1903 104.545 44.4157 104.545C44.5029 104.545 44.5829 104.505 44.6556 104.425C44.7283 104.352 44.7938 104.24 44.8519 104.087C44.8738 104.007 44.9246 103.967 45.0046 103.967C45.0337 103.967 45.0555 103.978 45.0701 103.999C45.0846 104.021 45.0846 104.058 45.0701 104.109C45.0555 104.16 45.0301 104.229 44.9937 104.316C44.9574 104.411 44.8774 104.534 44.7538 104.687C44.6375 104.84 44.5139 104.917 44.383 104.917C44.0776 104.917 43.8413 104.716 43.6741 104.316C43.5141 103.916 43.4341 103.443 43.4341 102.897C43.4341 102.351 43.4741 101.827 43.5541 101.324H43.445C42.5217 102.904 41.8273 103.694 41.362 103.694Z" fill="black"/>
<path d="M51.5758 98.7475C51.7866 98.9076 51.9866 98.9877 52.1756 98.9877C52.3719 98.9877 52.5101 98.9622 52.5901 98.9112C52.5901 99.0059 52.5464 99.0969 52.4592 99.1842C52.3792 99.2643 52.2592 99.3043 52.0993 99.3043C51.9466 99.3043 51.7794 99.2679 51.5976 99.1951C51.5831 99.8794 51.4704 100.582 51.2595 101.302C51.0487 102.016 50.776 102.616 50.4415 103.104C50.1071 103.585 49.7763 103.825 49.4491 103.825C49.1219 103.825 48.8711 103.697 48.6966 103.443C48.5148 103.159 48.4239 102.755 48.4239 102.231C48.4239 101.932 48.4421 101.612 48.4784 101.27C47.5768 102.886 46.8825 103.694 46.3953 103.694C45.9155 103.694 45.6755 103.286 45.6755 102.471C45.6755 101.626 45.8828 100.724 46.2972 99.7629C46.6462 98.9986 46.9661 98.5982 47.2569 98.5618C47.3951 98.5618 47.4642 98.6383 47.4642 98.7911C47.3769 99.0022 47.2678 99.2752 47.137 99.6101C47.0061 99.9376 46.8316 100.465 46.6135 101.193C46.4026 101.921 46.2972 102.46 46.2972 102.809C46.2972 103.151 46.3735 103.322 46.5262 103.322C46.7153 103.322 47.0097 103.017 47.4096 102.405C47.8168 101.794 48.1731 101.182 48.4784 100.571L48.9474 99.6647C49.151 99.257 49.3327 99.0532 49.4927 99.0532C49.6527 99.0532 49.7326 99.1296 49.7326 99.2825C49.2891 100.804 49.0674 101.994 49.0674 102.853C49.0674 103.253 49.1837 103.453 49.4164 103.453C49.6781 103.453 49.9508 103.239 50.2343 102.809C50.5252 102.373 50.7651 101.808 50.9541 101.117C51.1504 100.418 51.2486 99.7302 51.2486 99.0532V98.9877C51.0377 98.8348 50.8669 98.6528 50.736 98.4417C50.6051 98.2306 50.5397 98.0741 50.5397 97.9722C50.5397 97.863 50.587 97.7648 50.6815 97.6774C50.776 97.5901 50.8778 97.5464 50.9869 97.5464C51.125 97.5464 51.2486 97.6701 51.3577 97.9176C51.4667 98.1578 51.5394 98.4345 51.5758 98.7475Z" fill="black"/>
<path d="M57.356 98.1033C57.356 98.6419 57.5087 98.9295 57.814 98.9659C57.7922 99.0678 57.7086 99.1187 57.5632 99.1187C57.2651 99.1187 57.0542 98.9368 56.9306 98.5728C56.8725 98.4054 56.8434 98.2015 56.8434 97.9613C56.8434 97.7138 56.9379 97.419 57.1269 97.0769C57.5559 96.2835 58.3339 95.7739 59.4609 95.5483C59.8462 95.4755 60.257 95.4391 60.6933 95.4391C61.1368 95.4391 61.5149 95.3954 61.8275 95.3081C62.1402 95.2207 62.3546 95.1224 62.471 95.0132C62.7764 94.7293 63.0017 94.5874 63.1472 94.5874C63.2926 94.5874 63.3653 94.6311 63.3653 94.7184C63.3653 94.7403 63.3653 94.7621 63.3653 94.7839C63.3144 94.9878 63.0963 95.1807 62.7109 95.3626C62.4782 95.4646 62.2165 95.5446 61.9257 95.6029C61.6857 95.7048 61.4858 95.985 61.3258 96.4436C61.1659 96.8949 60.9986 97.5501 60.8241 98.409C61.2022 98.3726 61.5149 98.3544 61.7621 98.3544C61.8275 98.3544 61.8566 98.3945 61.8493 98.4745C61.8202 98.5619 61.7439 98.6092 61.6203 98.6165C61.4967 98.6165 61.2095 98.6529 60.7587 98.7257C60.417 100.414 60.1189 101.608 59.8644 102.307C59.2246 104.076 58.3121 104.96 57.1269 104.96C56.2763 104.96 55.7455 104.571 55.5346 103.792C55.4547 103.523 55.4147 103.253 55.4147 102.984C55.4147 102.474 55.5492 101.965 55.8182 101.455C56.2254 100.676 56.7598 100.287 57.4214 100.287C57.5159 100.287 57.5923 100.309 57.6504 100.353C57.7159 100.396 57.7595 100.462 57.7813 100.549C57.156 100.549 56.6398 100.873 56.2326 101.521C55.9127 102.023 55.7528 102.544 55.7528 103.082C55.7528 103.868 56.0291 104.349 56.5816 104.524C56.7125 104.56 56.8834 104.578 57.0942 104.578C57.3051 104.578 57.5268 104.516 57.7595 104.393C57.9994 104.276 58.2139 104.058 58.403 103.737C58.5993 103.424 58.7592 103.162 58.8828 102.951C59.0064 102.733 59.1482 102.347 59.3082 101.794C59.4972 101.117 59.6572 100.491 59.7881 99.9158C59.9189 99.3335 59.9989 98.9841 60.028 98.8676C59.6208 98.9331 59.3118 98.9659 59.101 98.9659C58.8974 98.9659 58.7811 98.8749 58.752 98.6929C58.7447 98.5473 58.7847 98.4636 58.8719 98.4418C58.9083 98.4854 59.021 98.5073 59.21 98.5073C59.4063 98.5073 59.7117 98.4891 60.1261 98.4527C60.3079 97.7393 60.4824 97.1606 60.6496 96.7166C60.8169 96.2653 61.0132 95.9231 61.2386 95.6902C61.1222 95.6975 60.9405 95.7011 60.6933 95.7011C59.2973 95.7011 58.3194 96.1124 57.7595 96.935C57.4905 97.3208 57.356 97.7102 57.356 98.1033ZM62.1547 100.342C62.1547 100.378 62.122 100.396 62.0565 100.396C61.9911 100.396 61.9257 100.382 61.8602 100.353C61.8021 100.323 61.773 100.283 61.773 100.232C61.773 99.49 61.8566 98.8931 62.0238 98.4418C62.1911 97.9832 62.4128 97.7539 62.6891 97.7539C62.7618 97.7539 62.8236 97.7794 62.8745 97.8303C62.9254 97.8813 62.9509 97.9504 62.9509 98.0378C62.6237 98.3653 62.3874 98.853 62.2419 99.5009C62.1838 99.7702 62.1547 100.05 62.1547 100.342Z" fill="black"/>
<path d="M66.3334 100.56C66.0571 100.56 65.919 100.258 65.919 99.6538C65.919 99.3117 65.9844 98.9914 66.1153 98.693C65.6209 99.1224 65.0683 99.9232 64.4576 101.095C63.8468 102.26 63.5414 103.02 63.5414 103.377C63.5414 103.465 63.4833 103.508 63.3669 103.508C63.1561 103.508 63.0507 103.221 63.0507 102.646C63.0507 101.561 63.1597 100.578 63.3778 99.6975C63.596 98.8167 63.8614 98.3763 64.174 98.3763C64.3121 98.3763 64.3812 98.4564 64.3812 98.6165C64.0468 99.6793 63.8068 100.768 63.6614 101.881H63.7377C64.3267 100.52 64.9774 99.4573 65.69 98.693C66.0971 98.2562 66.4679 98.0378 66.8024 98.0378C66.8751 98.0378 66.9333 98.0597 66.9769 98.1034C67.0278 98.147 67.0532 98.2016 67.0532 98.2671C67.0023 98.3181 66.9405 98.3945 66.8678 98.4964C66.7951 98.5983 66.697 98.8422 66.5734 99.228C66.4498 99.6065 66.388 100.021 66.388 100.473C66.388 100.531 66.3698 100.56 66.3334 100.56Z" fill="black"/>
<path d="M69.9031 98.3982C70.4557 98.3982 70.732 98.7221 70.732 99.37C70.732 99.7412 70.6083 100.131 70.3611 100.538C69.9394 101.215 69.3796 101.554 68.6816 101.554C68.5725 101.554 68.4816 101.536 68.4089 101.499C68.3362 101.463 68.2817 101.408 68.2453 101.335C68.7616 101.335 69.2342 101.037 69.6631 100.44C70.0121 99.9596 70.1866 99.5192 70.1866 99.1188C70.1866 98.8204 70.0667 98.6712 69.8267 98.6712C69.3469 98.6712 68.8997 99.0461 68.4853 99.7958C68.0418 100.611 67.82 101.448 67.82 102.307C67.82 103.035 68.0272 103.472 68.4416 103.617C68.5216 103.647 68.6234 103.661 68.747 103.661C68.8706 103.661 69.0015 103.632 69.1396 103.574C69.2778 103.508 69.3941 103.432 69.4886 103.344C69.6777 103.17 69.834 102.977 69.9576 102.766C69.9867 102.708 70.0412 102.678 70.1212 102.678C70.2521 102.678 70.3139 102.7 70.3066 102.744C70.2848 102.824 70.2012 102.959 70.0558 103.148C69.9176 103.337 69.7867 103.49 69.6631 103.606C69.5468 103.716 69.3905 103.814 69.1942 103.901C69.0051 103.996 68.8125 104.043 68.6161 104.043C67.8454 104.043 67.3547 103.679 67.1438 102.951C67.0784 102.704 67.0457 102.449 67.0457 102.187C67.0457 101.699 67.1584 101.168 67.3838 100.593C67.74 99.7194 68.2308 99.0897 68.8561 98.7039C69.1978 98.5001 69.5468 98.3982 69.9031 98.3982Z" fill="black"/>
<path d="M74.1366 98.3982C74.6892 98.3982 74.9655 98.7221 74.9655 99.37C74.9655 99.7412 74.8419 100.131 74.5947 100.538C74.173 101.215 73.6131 101.554 72.9151 101.554C72.806 101.554 72.7152 101.536 72.6424 101.499C72.5697 101.463 72.5152 101.408 72.4789 101.335C72.9951 101.335 73.4677 101.037 73.8967 100.44C74.2457 99.9596 74.4202 99.5192 74.4202 99.1188C74.4202 98.8204 74.3002 98.6712 74.0603 98.6712C73.5804 98.6712 73.1332 99.0461 72.7188 99.7958C72.2753 100.611 72.0535 101.448 72.0535 102.307C72.0535 103.035 72.2607 103.472 72.6752 103.617C72.7551 103.647 72.8569 103.661 72.9805 103.661C73.1041 103.661 73.235 103.632 73.3732 103.574C73.5113 103.508 73.6276 103.432 73.7222 103.344C73.9112 103.17 74.0675 102.977 74.1911 102.766C74.2202 102.708 74.2747 102.678 74.3547 102.678C74.4856 102.678 74.5474 102.7 74.5401 102.744C74.5183 102.824 74.4347 102.959 74.2893 103.148C74.1511 103.337 74.0203 103.49 73.8967 103.606C73.7803 103.716 73.624 103.814 73.4277 103.901C73.2387 103.996 73.046 104.043 72.8497 104.043C72.079 104.043 71.5882 103.679 71.3773 102.951C71.3119 102.704 71.2792 102.449 71.2792 102.187C71.2792 101.699 71.3919 101.168 71.6173 100.593C71.9735 99.7194 72.4643 99.0897 73.0896 98.7039C73.4313 98.5001 73.7803 98.3982 74.1366 98.3982Z" fill="black"/>
<path d="M77.1161 105.288C76.6944 105.288 76.3817 105.066 76.1781 104.622C75.9818 104.178 75.8837 103.512 75.8837 102.624C75.8837 101.736 76.0145 100.684 76.2763 99.468C76.538 98.2524 76.8434 97.2442 77.1924 96.4435C77.5487 95.6428 77.8577 95.2424 78.1194 95.2424C78.243 95.2424 78.3048 95.3152 78.3048 95.4608C78.1522 95.8102 77.9595 96.338 77.7268 97.044C77.4942 97.7428 77.2978 98.3907 77.1379 98.9876C76.9852 99.5845 76.8434 100.283 76.7125 101.084C76.5889 101.885 76.5271 102.573 76.5271 103.148C76.5271 103.715 76.5817 104.152 76.6907 104.458C76.8071 104.771 76.9634 104.927 77.1597 104.927C77.3269 104.927 77.4869 104.847 77.6396 104.687C77.7923 104.534 77.9013 104.382 77.9668 104.229C78.0031 104.149 78.0685 104.127 78.1631 104.163C78.1994 104.178 78.2067 104.207 78.1849 104.25C78.1703 104.301 78.1413 104.363 78.0976 104.436C78.0613 104.509 77.9922 104.622 77.8904 104.775C77.6723 105.117 77.4142 105.288 77.1161 105.288Z" fill="black"/>
<path d="M78.6938 107.111C79.3482 107.111 79.8608 106.802 80.2316 106.183C80.5515 105.637 80.7987 104.957 80.9732 104.142C79.6572 104.171 78.6466 104.673 77.9413 105.648C77.8977 105.714 77.8286 105.725 77.7341 105.681C77.6832 105.652 77.6686 105.616 77.6905 105.572C78.0031 105.099 78.4393 104.695 78.9992 104.36C79.559 104.032 80.2389 103.854 81.0387 103.825C81.1186 103.461 81.195 103.035 81.2677 102.547C81.3404 102.06 81.424 101.587 81.5185 101.128H81.4204C80.4752 102.809 79.7554 103.65 79.2609 103.65C78.7084 103.65 78.4321 103.224 78.4321 102.373C78.4321 101.521 78.6138 100.666 78.9774 99.8067C79.3409 98.9405 79.6717 98.4746 79.9698 98.4091L80.0353 98.3982C80.1589 98.3982 80.2207 98.4783 80.2207 98.6384C80.1407 98.835 80.0389 99.0934 79.9153 99.4137C79.7917 99.7267 79.6281 100.247 79.4245 100.975C79.221 101.696 79.1192 102.26 79.1192 102.667C79.1192 103.068 79.2064 103.268 79.3809 103.268C79.5845 103.268 79.9117 102.915 80.3625 102.209C81.0241 101.175 81.5985 100.127 82.0857 99.0642C82.2965 98.6202 82.5219 98.3982 82.7618 98.3982C82.9145 98.3982 82.9909 98.4819 82.9909 98.6493C82.8527 98.9041 82.6855 99.3809 82.4892 100.08C82.2929 100.779 82.1329 101.485 82.0093 102.198C81.8857 102.904 81.7803 103.457 81.693 103.858C82.2456 103.952 82.5655 104.192 82.6528 104.578C82.6673 104.644 82.6746 104.731 82.6746 104.84C82.6746 104.957 82.631 105.055 82.5437 105.135C82.4565 105.222 82.3801 105.266 82.3147 105.266C82.3292 105.215 82.3329 105.124 82.3256 104.993C82.3183 104.869 82.2929 104.764 82.2492 104.677C82.2129 104.589 82.1402 104.498 82.0311 104.404C81.9221 104.309 81.7803 104.24 81.6058 104.196C81.0459 106.307 80.0753 107.363 78.6938 107.363C78.0976 107.363 77.7014 107.151 77.505 106.729C77.4978 106.707 77.4941 106.689 77.4941 106.675C77.4941 106.631 77.5341 106.602 77.6141 106.587C77.6868 106.58 77.7413 106.606 77.7777 106.664C77.9086 106.962 78.214 107.111 78.6938 107.111Z" fill="black"/>
<path d="M84.2981 103.77C84.1454 103.77 84.0691 103.628 84.0691 103.344C84.0691 103.17 84.1164 102.984 84.2109 102.787C84.3054 102.591 84.4399 102.493 84.6144 102.493C84.7598 102.493 84.8325 102.576 84.8325 102.744C84.8325 102.911 84.698 103.191 84.429 103.585L84.2981 103.77Z" fill="black"/>
<path d="M19.7986 86.6558C19.7642 85.2407 19.7469 84.4469 19.7469 83.0145C19.7469 81.5822 19.7469 80.7365 19.7986 79.2869C19.8331 77.8546 20.0744 77.8028 21.2811 77.7165C21.3845 77.613 21.3845 77.4231 21.2811 77.3196C20.6433 77.3541 19.5746 77.4059 19.0574 77.4059C18.5403 77.4059 17.3682 77.3541 16.8166 77.3196C16.7132 77.4231 16.7132 77.613 16.8166 77.7165C18.0232 77.82 18.299 77.8546 18.3335 79.2869C18.3679 80.7193 18.3852 81.5649 18.3852 82.9973C18.3852 84.4296 18.3679 85.2235 18.3335 86.6558C18.299 88.0882 18.0232 88.1745 16.8166 88.2262C16.7132 88.3298 16.7132 88.5196 16.8166 88.6232C17.4888 88.5887 18.5403 88.5369 19.0574 88.5369C19.5746 88.5369 20.5743 88.5714 21.2811 88.6232C21.3845 88.5196 21.3845 88.3298 21.2811 88.2262C20.0744 88.1745 19.8331 88.0882 19.7986 86.6558Z" fill="black"/>
<path d="M31.6609 79.4767L31.6781 85.4651C31.6781 85.793 31.5919 85.9828 31.4713 85.9828C31.3334 85.9828 31.1438 85.6722 30.6439 85.0336L24.7315 77.4059L22.5078 77.3714C22.4044 77.4749 22.4044 77.6647 22.5078 77.7683C23.3352 77.82 23.7662 78.3723 23.9558 79.0453L23.9385 86.466C23.9385 88.0019 23.6455 88.1054 22.4389 88.2262C22.3355 88.3298 22.3355 88.5196 22.4389 88.6232C23.2835 88.6059 23.5766 88.5369 24.3005 88.5369C25.0245 88.5369 25.2831 88.6059 26.1449 88.6232C26.2484 88.5196 26.2484 88.3298 26.1449 88.2262C24.9383 88.1054 24.6453 88.0364 24.6453 86.466L24.628 80.9609C24.628 80.3741 24.7142 80.1153 24.8521 80.1153C24.9555 80.1153 25.1452 80.3051 25.4382 80.6848L31.454 88.2953C31.6436 88.5541 31.8677 88.7095 32.1435 88.7095C32.3849 88.7095 32.3504 88.5024 32.3504 88.1745L32.3676 79.4767C32.3676 77.9408 32.6606 77.8373 33.8673 77.7165C33.9707 77.613 33.9707 77.4231 33.8673 77.3196C33.0226 77.3368 32.7296 77.4059 32.0056 77.4059C31.2817 77.4059 31.0231 77.3368 30.1612 77.3196C30.0578 77.4231 30.0578 77.613 30.1612 77.7165C31.3678 77.8373 31.6609 77.9063 31.6609 79.4767Z" fill="black"/>
<path d="M37.844 86.6558C37.8096 85.2752 37.7923 84.4814 37.7923 83.1181C38.3956 83.1353 38.9989 83.4114 39.3609 83.8601L42.0672 87.2771C42.4119 87.7258 42.6533 88.2435 42.6877 88.5196C42.6877 88.5714 42.705 88.6232 42.7739 88.6232C43.1187 88.6059 43.0842 88.5369 43.6013 88.5369C44.2736 88.5369 44.7045 88.6059 45.5147 88.6232C45.6181 88.5196 45.6181 88.3298 45.5147 88.2262C45.2044 88.1745 44.4115 88.0019 43.8254 87.2771L40.0504 82.7902C39.9125 82.6348 39.8263 82.4968 39.8263 82.3587C39.8263 82.2379 39.8436 82.1171 40.4296 81.5131L42.9635 78.9073C43.7564 78.0616 44.6183 77.8028 45.3078 77.7165C45.4112 77.613 45.4112 77.4231 45.3078 77.3196C44.4976 77.3368 44.1874 77.4059 43.4979 77.4059C42.8084 77.4059 42.274 77.3368 41.4639 77.3196C41.3604 77.4231 41.3604 77.613 41.4639 77.7165C42.0844 77.7683 42.8256 78.0616 42.1189 78.8382L39.3609 81.8755C38.9989 82.2724 38.4301 82.5831 37.7923 82.6348C37.7923 81.4268 37.8096 80.5985 37.844 79.2869C37.8785 77.8546 38.1371 77.7683 39.3437 77.7165C39.4471 77.613 39.4471 77.4231 39.3437 77.3196C38.499 77.3368 37.9647 77.4059 37.0856 77.4059C36.2237 77.4059 35.7411 77.3368 34.8792 77.3196C34.7758 77.4231 34.7758 77.613 34.8792 77.7165C36.0858 77.7683 36.3271 77.8546 36.3616 79.2869C36.3961 80.7193 36.4306 81.5649 36.4306 82.9973C36.4306 84.4296 36.3961 85.2235 36.3616 86.6558C36.3271 88.0882 36.0858 88.1745 34.8792 88.2262C34.7758 88.3298 34.7758 88.5196 34.8792 88.6232C35.7238 88.6059 36.241 88.5369 37.1201 88.5369C37.9819 88.5369 38.4818 88.6059 39.3437 88.6232C39.4471 88.5196 39.4471 88.3298 39.3437 88.2262C38.1371 88.1745 37.8785 88.0882 37.844 86.6558Z" fill="black"/>
<path d="M52.4697 77.6474C51.4699 77.5093 51.5216 77.1814 49.8323 77.1814C48.0914 77.1814 46.5573 78.3376 46.5573 80.1669C46.5573 81.7891 47.6949 82.5657 49.0394 83.1352C50.1254 83.6184 51.9181 83.9981 51.9181 85.9654C51.9181 87.3633 51.0907 88.2606 49.7289 88.2606C48.1086 88.2606 46.902 87.3633 46.5228 85.6375C46.3159 85.5685 46.2987 85.603 46.1436 85.6893C46.2125 87.0181 46.2815 87.4668 46.4883 88.3124C47.5743 88.3124 48.0397 88.7093 49.5738 88.7093C50.3667 88.7093 51.1079 88.5195 51.7112 88.1571C52.6937 87.5358 53.3315 86.4659 53.3315 85.3614C53.3315 83.722 52.2111 82.9454 50.9528 82.4104C50.1254 82.0652 47.7466 81.3922 47.7466 79.701C47.7466 78.7346 48.6602 77.5956 49.66 77.5956C51.3492 77.5956 52.056 78.8381 52.4007 79.9771C52.5903 79.9771 52.6248 79.9944 52.7799 79.8736C52.7282 79.0452 52.6593 78.562 52.4697 77.6474Z" fill="black"/>
<path d="M60.0778 88.7093C61.7498 88.7093 63.4563 87.9155 64.6285 86.3796C64.5423 86.2243 64.4216 86.1207 64.232 86.1207C63.0082 87.4668 61.836 88.0018 60.2329 88.0018C57.5612 88.0018 56.2166 85.2924 56.2166 82.7728C56.2166 79.9598 58.0093 77.6474 60.1812 77.6474C62.56 77.6474 63.577 79.235 64.0252 80.7192C64.1803 80.7364 64.2837 80.7192 64.4216 80.6329C64.3354 79.7355 64.2148 78.9071 64.0424 77.958C63.1633 77.8717 62.3876 77.1814 60.2674 77.1814C56.8544 77.1814 54.6653 79.8563 54.6653 83.1007C54.6653 86.1552 56.3718 88.7093 60.0778 88.7093Z" fill="black"/>
<path d="M69.7202 83.7392C69.341 83.7392 69.2203 83.6011 69.2893 83.4286L71.0992 78.9589H71.1509L72.8057 83.7392H69.7202ZM67.7724 87.346L68.8066 84.6711C68.8928 84.4468 68.9962 84.2914 69.4099 84.2914H73.0125L74.0985 87.4668C74.3398 88.1744 73.6503 88.1744 72.8229 88.2261C72.7195 88.3297 72.7195 88.5195 72.8229 88.623C73.4607 88.6058 74.4088 88.5368 75.081 88.5368C75.7877 88.5368 76.5289 88.6058 77.1667 88.623C77.2701 88.5195 77.2701 88.3297 77.1667 88.2261C76.4945 88.1744 75.9256 88.1053 75.6154 87.2252L72.0128 77.1814C71.7542 77.3367 71.3405 77.5265 71.1164 77.5265L67.1173 86.9491C66.6692 88.0018 66.1521 88.1744 65.3936 88.2261C65.2902 88.3297 65.2902 88.5195 65.3936 88.623C66.0314 88.6058 66.4279 88.5368 67.1001 88.5368C67.8068 88.5368 68.324 88.6058 68.9617 88.623C69.0652 88.5195 69.0652 88.3297 68.9617 88.2261C68.3067 88.1916 67.4966 88.0708 67.7724 87.346Z" fill="black"/>
<path d="M80.5146 83.4286C80.8938 83.5494 81.3937 83.5839 81.9797 83.5839C85.1169 83.5839 86.0133 81.6165 86.0133 80.1497C86.0133 79.1315 85.3755 77.2332 82.1866 77.2332C81.7384 77.2332 80.5318 77.4057 79.8423 77.4057C78.9804 77.4057 78.4978 77.3367 77.6359 77.3194C77.5325 77.423 77.5325 77.6128 77.6359 77.7164C78.8425 77.7681 79.1011 77.8544 79.1183 79.2868C79.1356 80.7192 79.1528 81.5648 79.1528 82.9971C79.1528 84.4295 79.1528 85.2233 79.1183 86.6557C79.0839 88.1053 78.8425 88.1743 77.6359 88.2261C77.5325 88.3297 77.5325 88.5195 77.6359 88.623C78.4805 88.6058 78.9977 88.5367 79.8768 88.5367C80.8421 88.5367 81.4626 88.6058 82.3245 88.623C82.4279 88.5195 82.4279 88.3297 82.3245 88.2261C81.1351 88.1571 80.5663 88.0708 80.549 87.0699C80.5318 85.7756 80.5146 84.6711 80.5146 83.4286ZM80.549 78.4757C80.5663 77.9752 80.8421 77.6473 82.0832 77.6473C83.2725 77.6473 84.4964 78.2686 84.4964 80.4603C84.4964 82.3241 83.5483 83.1697 81.8763 83.1697C81.4626 83.1697 80.7386 83.1352 80.5146 83.0834V82.9971C80.5146 81.5648 80.5318 79.9081 80.549 78.4757Z" fill="black"/>
<path d="M92.16 82.3758L90.1432 82.3931C90.1432 82.3931 90.126 80.0461 90.1777 78.631C90.1949 78.2168 90.4018 77.8717 90.8155 77.8717H93.5045C94.7973 77.8717 95.0559 78.7863 95.4351 79.9771C95.6419 80.0116 95.6764 79.9771 95.8488 79.8908C95.7626 79.1832 95.504 77.4747 95.4696 77.3367C95.4696 77.3022 95.4523 77.2849 95.4006 77.2849C95.1076 77.3367 94.9524 77.4057 94.5387 77.4057H89.5054C88.9883 77.4057 88.1264 77.3367 87.2646 77.3194C87.1612 77.423 87.1612 77.6128 87.2646 77.7163C88.4712 77.7681 88.6953 77.8544 88.747 79.2868C88.7815 80.7019 88.7815 81.5648 88.7815 82.9971C88.7815 84.4295 88.7815 85.2406 88.747 86.6557C88.6953 88.088 88.4712 88.1743 87.2646 88.2261C87.1612 88.3296 87.1612 88.5195 87.2646 88.623C88.1092 88.6058 89.0228 88.5367 89.5399 88.5367H93.3666C94.194 88.5367 95.573 88.623 95.573 88.623C95.8143 87.7601 96.0556 86.5694 96.1935 85.6893C96.0212 85.5857 96.0039 85.5512 95.7798 85.603C95.4351 86.8455 94.8145 88.088 93.5045 88.088H90.8155C90.4363 88.088 90.1949 87.8119 90.1777 87.346C90.126 85.8964 90.1432 82.8763 90.1432 82.8763L92.16 82.8936C93.6252 82.9108 93.6941 83.2732 93.7458 84.0498C93.8492 84.1534 94.0216 84.1534 94.125 84.0498C94.1078 83.4458 94.0561 83.2387 94.0561 82.7037C94.0561 82.1342 94.1078 81.7373 94.125 81.2196C94.0216 81.1161 93.8492 81.1161 93.7458 81.2196C93.6941 82.1688 93.6252 82.3758 92.16 82.3758Z" fill="black"/>
<path d="M52.0076 24.9385L34.0282 43.3582C27.9534 50.8898 38.1624 50.0135 42.5388 52.1829C44.1087 53.7894 36.5215 54.9752 38.0914 56.5831C39.6613 58.1897 47.5844 59.6783 49.1569 61.2849C50.7268 62.8914 45.9435 64.5958 47.5134 66.2023C49.0833 67.8089 52.7143 66.2867 53.3942 69.9956C53.8786 72.6459 59.9374 71.1345 62.9005 68.9639C64.4704 67.356 59.8972 67.5074 61.4671 65.9008C65.3711 61.9039 69.0061 64.4484 70.3417 60.4434C71.0015 58.4644 64.5948 57.3924 66.1674 55.7859C70.6844 53.1449 86.2962 51.4258 78.8885 44.0094L60.2519 24.9385C57.9727 22.7477 54.1691 22.7236 52.0076 24.9385ZM72.6598 60.4434C72.6598 61.3572 79.385 61.9562 79.385 60.2277C78.4267 57.4514 73.4547 57.639 72.6598 60.4434ZM42.3648 65.2992C43.9574 66.678 46.4173 64.9562 47.1548 63.0321C45.6116 60.9794 39.8353 63.1058 42.3648 65.2992ZM71.8166 62.3206C69.7636 64.1643 72.0468 66.0348 74.0704 64.8437C74.5214 64.3854 74.0583 62.7789 71.8166 62.3206Z" fill="black"/>
<path d="M47.7048 53.1797C48.1853 53.4785 55.4526 54.9564 57.2285 55.2512C57.8442 55.3812 57.4079 56.0163 56.5594 56.445C54.6455 56.9542 45.3627 53.1797 47.7048 53.1797Z" fill="white"/>
<path d="M59.1652 26.2302L66.2785 33.463C66.9531 34.1531 66.9437 35.4903 66.5663 35.8749L63.0344 33.0463L62.3398 37.2349L59.3887 35.6752L54.663 38.6646L53.0984 32.363L50.5596 36.7606H46.6784C45.0964 36.7606 44.9104 34.7507 46.3478 33.3116C48.8585 30.5983 51.74 27.8327 53.3059 26.2302C54.8798 24.6196 57.6221 24.6652 59.1652 26.2302Z" fill="white"/>
</svg>
