<svg width="158" height="64" viewBox="0 0 158 64" fill="none" xmlns="http://www.w3.org/2000/svg">
<g clip-path="url(#clip0_39_1214)">
<mask id="mask0_39_1214" style="mask-type:luminance" maskUnits="userSpaceOnUse" x="-16" y="-25" width="174" height="124">
<path d="M-15.512 -24.1731H157.689V98.5247H-15.512V-24.1731Z" fill="white"/>
</mask>
<g mask="url(#mask0_39_1214)">
<path d="M93.8229 25.2873C92.9826 25.2873 92.2787 25.674 91.7077 26.4452C91.1397 27.2171 90.8542 28.3005 90.8542 29.6946C90.8542 31.0918 91.1255 32.1614 91.6693 32.9067C92.2122 33.6544 92.9254 34.0267 93.8101 34.0267C94.6943 34.0267 95.4126 33.6497 95.9643 32.8932C96.516 32.1395 96.7925 31.0605 96.7925 29.6559C96.7925 28.2525 96.5069 27.1721 95.9378 26.4177C95.3693 25.6642 94.6643 25.2873 93.8229 25.2873ZM93.8101 39.157C91.3498 39.157 89.3436 38.3503 87.7929 36.7373C86.2444 35.1229 85.4697 32.7671 85.4697 29.6701C85.4697 26.5714 86.2532 24.2251 87.8201 22.6275C89.3875 21.0319 91.4108 20.2334 93.8892 20.2334C96.3671 20.2334 98.3687 21.0175 99.8912 22.5902C101.416 24.1598 102.178 26.5394 102.178 29.7219C102.178 32.9067 101.399 35.2756 99.8393 36.8301C98.2798 38.3814 96.2715 39.157 93.8101 39.157Z" fill="#414042"/>
<path d="M109.541 25.4696V33.342C109.541 33.7097 109.568 33.9414 109.62 34.0386C109.673 34.1354 109.831 34.1839 110.093 34.1839C111.057 34.1839 111.787 33.823 112.287 33.1035C112.787 32.3848 113.035 31.1881 113.035 29.5121C113.035 27.8354 112.776 26.743 112.261 26.2355C111.744 25.7265 110.924 25.4696 109.804 25.4696H109.541ZM104.497 37.6839V21.8927C104.497 21.4537 104.606 21.1073 104.826 20.8504C105.045 20.5974 105.329 20.4689 105.68 20.4689H110.067C112.852 20.4689 114.966 21.1725 116.41 22.5765C117.856 23.9799 118.579 26.1898 118.579 29.2084C118.579 35.6661 115.828 38.8943 110.329 38.8943H105.837C104.945 38.8943 104.497 38.4917 104.497 37.6839Z" fill="#414042"/>
<path d="M128.665 25.2873C127.825 25.2873 127.119 25.674 126.549 26.4452C125.981 27.2171 125.697 28.3005 125.697 29.6946C125.697 31.0918 125.969 32.1614 126.511 32.9067C127.053 33.6544 127.767 34.0267 128.652 34.0267C129.536 34.0267 130.255 33.6497 130.806 32.8932C131.358 32.1395 131.634 31.0605 131.634 29.6559C131.634 28.2525 131.349 27.1721 130.78 26.4177C130.211 25.6642 129.507 25.2873 128.665 25.2873ZM128.652 39.157C126.191 39.157 124.186 38.3503 122.637 36.7373C121.086 35.1229 120.311 32.7671 120.311 29.6701C120.311 26.5714 121.095 24.2251 122.661 22.6275C124.23 21.0319 126.252 20.2334 128.731 20.2334C131.21 20.2334 133.21 21.0175 134.734 22.5902C136.258 24.1598 137.02 26.5394 137.02 29.7219C137.02 32.9067 136.24 35.2756 134.681 36.8301C133.122 38.3814 131.112 39.157 128.652 39.157Z" fill="#414042"/>
<path d="M146.811 38.4748C146.811 38.8235 145.945 39.0005 144.21 39.0005C142.477 39.0005 141.609 38.8235 141.609 38.4748V25.2606H138.457C138.159 25.2606 137.948 24.858 137.826 24.0488C137.774 23.6637 137.749 23.2695 137.749 22.8652C137.749 22.4633 137.774 22.0674 137.826 21.6816C137.948 20.8745 138.159 20.4688 138.457 20.4688H149.885C150.182 20.4688 150.392 20.8745 150.516 21.6816C150.567 22.0674 150.594 22.4633 150.594 22.8652C150.594 23.2695 150.567 23.6637 150.516 24.0488C150.392 24.858 150.182 25.2606 149.885 25.2606H146.811V38.4748Z" fill="#414042"/>
<path d="M80.824 29.1216C79.4097 29.0997 77.7911 29.3951 77.7911 29.3951V32.1607H79.4188L79.4006 33.3935C79.4006 33.8502 78.9488 34.0796 78.0475 34.0796C77.1452 34.0796 76.3482 33.6968 75.6569 32.9333C74.9639 32.1689 74.6193 31.0515 74.6193 29.579C74.6193 28.1035 74.956 27.0157 75.6304 26.3138C76.3033 25.6125 77.1854 25.2607 78.2705 25.2607C78.7263 25.2607 79.1982 25.3344 79.6889 25.4847C80.1799 25.6337 80.5078 25.7734 80.6751 25.9041C80.841 26.0387 80.9988 26.1023 81.1479 26.1023C81.2964 26.1023 81.5367 25.9284 81.8693 25.5766C82.2022 25.2257 82.5006 24.694 82.7637 23.985C83.0257 23.2723 83.157 22.7261 83.157 22.3386C83.157 21.9542 83.1486 21.6891 83.1316 21.5492C82.7637 21.1459 82.0847 20.8261 81.0944 20.5883C80.1059 20.3512 78.9976 20.2334 77.7716 20.2334C75.0738 20.2334 72.9642 21.0844 71.4408 22.7862C69.9162 24.4888 69.1553 26.6989 69.1553 29.4193C69.1553 32.6134 69.9341 35.0347 71.4917 36.6842C73.0521 38.3333 75.1008 39.157 77.6406 39.157C79.0065 39.157 80.2188 39.0393 81.278 38.8022C82.3384 38.566 83.0432 38.3235 83.3939 38.0783L83.499 29.8417C83.499 29.3631 82.2383 29.1458 80.824 29.1216Z" fill="#414042"/>
<path d="M75.2861 49.9318C75.1409 50.2302 74.874 50.5039 74.4836 50.7515C74.0936 51.0007 73.5982 51.1245 72.9964 51.1245C72.2025 51.1245 71.564 50.8739 71.0791 50.3671C70.596 49.8642 70.354 49.1394 70.354 48.1936V45.8352C70.354 44.9099 70.582 44.2003 71.0395 43.7049C71.496 43.2134 72.1076 42.9642 72.8713 42.9642C73.6177 42.9642 74.1964 43.161 74.606 43.5501C75.0143 43.9406 75.2289 44.4861 75.2475 45.1827L75.2373 45.2137H74.6278C74.606 44.6798 74.4512 44.2679 74.1601 43.9769C73.8707 43.6883 73.4399 43.5424 72.8713 43.5424C72.2958 43.5424 71.84 43.7375 71.5063 44.1289C71.1735 44.5194 71.0076 45.0855 71.0076 45.8292V48.201C71.0076 48.9722 71.187 49.5602 71.5454 49.9651C71.9037 50.3671 72.3868 50.5685 72.9964 50.5685C73.4416 50.5685 73.7995 50.4895 74.0673 50.3277C74.336 50.1682 74.5224 49.9735 74.6278 49.7425V47.6767H72.985V47.1025H75.2861V49.9318Z" fill="#6D6E71"/>
<path d="M78.3039 50.5349C78.6652 50.5349 78.9871 50.4323 79.2681 50.2235C79.5497 50.0136 79.747 49.7486 79.8641 49.4257V48.1509H78.8188C78.3744 48.1509 78.0184 48.277 77.7519 48.5293C77.4848 48.7799 77.3526 49.093 77.3526 49.4653C77.3526 49.7798 77.4352 50.0381 77.6025 50.2372C77.7696 50.437 78.0032 50.5349 78.3039 50.5349ZM79.9616 51.0105C79.929 50.8063 79.9036 50.6405 79.8876 50.5107C79.872 50.3785 79.8641 50.247 79.8641 50.1134C79.6856 50.4058 79.4552 50.6482 79.1706 50.8382C78.8865 51.0296 78.5705 51.1245 78.2224 51.1245C77.7356 51.1245 77.3612 50.9734 77.0962 50.6708C76.8328 50.3671 76.6997 49.9577 76.6997 49.4408C76.6997 48.8946 76.8912 48.4563 77.2752 48.1311C77.6589 47.8059 78.1803 47.6434 78.8363 47.6434H79.8641V46.9193C79.8641 46.5029 79.758 46.1749 79.5497 45.9378C79.337 45.7037 79.0448 45.5853 78.6676 45.5853C78.3167 45.5853 78.0272 45.697 77.8001 45.9233C77.5737 46.1483 77.4613 46.4232 77.4613 46.7507L76.851 46.7454L76.8403 46.7134C76.823 46.2691 76.9908 45.8762 77.3447 45.5282C77.6973 45.181 78.1496 45.0085 78.7001 45.0085C79.2442 45.0085 79.6821 45.1743 80.0165 45.5046C80.349 45.8382 80.5158 46.3138 80.5158 46.9323V49.8222C80.5158 50.0328 80.5256 50.2372 80.544 50.4323C80.5628 50.63 80.5933 50.8205 80.641 51.0105H79.9616Z" fill="#6D6E71"/>
<path d="M82.5654 45.1181L82.6212 46.0327C82.7757 45.7054 82.9828 45.4531 83.2395 45.2738C83.4971 45.0969 83.8003 45.0085 84.1484 45.0085C84.5037 45.0085 84.8032 45.112 85.0447 45.3216C85.2865 45.5305 85.4647 45.8466 85.578 46.2714C85.723 45.8793 85.9282 45.5694 86.1947 45.3452C86.4611 45.1204 86.7843 45.0085 87.1587 45.0085C87.6746 45.0085 88.0748 45.2176 88.3585 45.6361C88.6433 46.0555 88.7852 46.699 88.7852 47.5683V51.0105H88.1283V47.5569C88.1283 46.8342 88.0285 46.3252 87.8344 46.0327C87.6392 45.7396 87.3593 45.592 86.9972 45.592C86.6163 45.592 86.3189 45.7531 86.1051 46.0807C85.8924 46.4082 85.7612 46.8176 85.7135 47.3121V47.4648V51.0105H85.0598V47.5606C85.0598 46.8549 84.9612 46.3497 84.7592 46.0481C84.5582 45.7464 84.2785 45.5967 83.9194 45.5967C83.5762 45.5967 83.2986 45.7016 83.0906 45.9096C82.8811 46.1187 82.7322 46.405 82.6419 46.7682V51.0105H81.989V45.1181H82.5654Z" fill="#6D6E71"/>
<path d="M92.048 45.5853C91.6389 45.5853 91.3029 45.7723 91.0395 46.1453C90.7759 46.5197 90.6398 46.9811 90.6288 47.531H93.342V47.2788C93.342 46.7925 93.2282 46.3875 93.0002 46.0663C92.7707 45.7448 92.454 45.5853 92.048 45.5853ZM92.1404 51.1245C91.5063 51.1245 90.9876 50.8853 90.5848 50.4081C90.1832 49.9318 89.9819 49.3224 89.9819 48.5801V47.6017C89.9819 46.858 90.1837 46.2378 90.5874 45.7448C90.992 45.254 91.4781 45.0085 92.048 45.0085C92.6642 45.0085 93.1414 45.2274 93.4823 45.6667C93.8239 46.1066 93.9945 46.6976 93.9945 47.4392V48.0856H90.6288V48.5757C90.6288 49.1462 90.7652 49.621 91.0365 50.0001C91.3083 50.3801 91.6776 50.5685 92.1404 50.5685C92.462 50.5685 92.7419 50.5116 92.9753 50.3997C93.2087 50.2852 93.4088 50.1248 93.5751 49.9143L93.8425 50.3778C93.665 50.6035 93.4348 50.7858 93.154 50.921C92.8738 51.0555 92.5352 51.1245 92.1404 51.1245Z" fill="#6D6E71"/>
<path d="M99.3016 45.5853C98.8914 45.5853 98.5547 45.7723 98.2915 46.1453C98.0295 46.5197 97.8931 46.9811 97.8812 47.531H100.595V47.2788C100.595 46.7925 100.482 46.3875 100.252 46.0663C100.024 45.7448 99.7074 45.5853 99.3016 45.5853ZM99.3933 51.1245C98.759 51.1245 98.2412 50.8853 97.8391 50.4081C97.4359 49.9318 97.2341 49.3224 97.2341 48.5801V47.6017C97.2341 46.858 97.4368 46.2378 97.8396 45.7448C98.2454 45.254 98.7317 45.0085 99.3016 45.0085C99.9166 45.0085 100.396 45.2274 100.736 45.6667C101.076 46.1066 101.247 46.6976 101.247 47.4392V48.0856H97.8812V48.5757C97.8812 49.1462 98.0178 49.621 98.2908 50.0001C98.5612 50.3801 98.9288 50.5685 99.3933 50.5685C99.716 50.5685 99.9948 50.5116 100.227 50.3997C100.462 50.2852 100.662 50.1248 100.83 49.9143L101.095 50.3778C100.918 50.6035 100.688 50.7858 100.407 50.921C100.127 51.0555 99.7884 51.1245 99.3933 51.1245Z" fill="#6D6E71"/>
<path d="M102.971 45.1181L103.025 46.0921C103.181 45.7464 103.389 45.478 103.649 45.2913C103.907 45.1036 104.21 45.0085 104.559 45.0085C105.085 45.0085 105.487 45.2032 105.767 45.5944C106.049 45.9849 106.189 46.592 106.189 47.4156V51.0105H105.532V47.4217C105.532 46.7484 105.433 46.2782 105.238 46.0054C105.043 45.7326 104.757 45.5967 104.385 45.5967C104.051 45.5967 103.771 45.7054 103.547 45.9264C103.321 46.1453 103.153 46.4369 103.041 46.8046V51.0105H102.388V45.1181H102.971Z" fill="#6D6E71"/>
<path d="M108.104 48.5802C108.104 49.1782 108.217 49.6538 108.447 50.0077C108.673 50.3649 109.019 50.5411 109.479 50.5411C109.795 50.5411 110.06 50.4569 110.278 50.2844C110.496 50.1119 110.667 49.8718 110.794 49.5671V46.6483C110.672 46.3345 110.504 46.0808 110.293 45.8855C110.081 45.6934 109.813 45.5968 109.49 45.5968C109.031 45.5968 108.683 45.7973 108.452 46.2C108.22 46.6033 108.104 47.1292 108.104 47.775V48.5802ZM107.445 47.775C107.445 46.9399 107.613 46.2692 107.952 45.7638C108.287 45.2609 108.754 45.0086 109.349 45.0086C109.679 45.0086 109.969 45.0893 110.216 45.2511C110.464 45.4099 110.669 45.6423 110.834 45.9379L110.898 45.1182H111.452V51.016C111.452 51.7711 111.277 52.3563 110.926 52.7703C110.574 53.1827 110.075 53.3916 109.43 53.3916C109.198 53.3916 108.949 53.3552 108.683 53.2846C108.416 53.214 108.179 53.1212 107.972 53.0048L108.153 52.4306C108.33 52.5453 108.527 52.6342 108.746 52.6966C108.963 52.7612 109.187 52.7922 109.419 52.7922C109.887 52.7922 110.233 52.6418 110.457 52.3418C110.682 52.0378 110.794 51.5981 110.794 51.016V50.3033C110.628 50.5686 110.423 50.7721 110.18 50.9127C109.938 51.054 109.656 51.1246 109.337 51.1246C108.747 51.1246 108.283 50.8929 107.949 50.4294C107.613 49.9669 107.445 49.3498 107.445 48.5802V47.775Z" fill="#6D6E71"/>
<path d="M113.65 51.0107H112.991V45.1183H113.65V51.0107ZM113.65 43.4407H112.991V42.5124H113.65V43.4407Z" fill="#6D6E71"/>
<path d="M115.775 45.1181L115.829 46.0921C115.986 45.7464 116.192 45.478 116.452 45.2913C116.711 45.1036 117.015 45.0085 117.363 45.0085C117.888 45.0085 118.293 45.2032 118.573 45.5944C118.854 45.9849 118.993 46.592 118.993 47.4156V51.0105H118.336V47.4217C118.336 46.7484 118.238 46.2782 118.042 46.0054C117.846 45.7326 117.562 45.5967 117.189 45.5967C116.855 45.5967 116.576 45.7054 116.351 45.9264C116.126 46.1453 115.958 46.4369 115.846 46.8046V51.0105H115.193V45.1181H115.775Z" fill="#6D6E71"/>
<path d="M122.267 45.5853C121.857 45.5853 121.52 45.7723 121.258 46.1453C120.996 46.5197 120.859 46.9811 120.847 47.531H123.561V47.2788C123.561 46.7925 123.447 46.3875 123.218 46.0663C122.99 45.7448 122.673 45.5853 122.267 45.5853ZM122.36 51.1245C121.724 51.1245 121.206 50.8853 120.805 50.4081C120.403 49.9318 120.202 49.3224 120.202 48.5801V47.6017C120.202 46.858 120.403 46.2378 120.807 45.7448C121.211 45.254 121.698 45.0085 122.267 45.0085C122.882 45.0085 123.362 45.2274 123.703 45.6667C124.043 46.1066 124.214 46.6976 124.214 47.4392V48.0856H120.847V48.5757C120.847 49.1462 120.984 49.621 121.256 50.0001C121.527 50.3801 121.895 50.5685 122.36 50.5685C122.682 50.5685 122.96 50.5116 123.193 50.3997C123.428 50.2852 123.628 50.1248 123.796 49.9143L124.062 50.3778C123.884 50.6035 123.654 50.7858 123.373 50.921C123.093 51.0555 122.755 51.1245 122.36 51.1245Z" fill="#6D6E71"/>
<path d="M56.1088 40.9623C56.1088 40.9623 56.0332 40.4975 55.9889 40.5017L47.5697 41.3155C46.8998 41.3803 46.3795 41.9156 46.3325 42.5882L46.1012 45.9096L39.5877 46.3752L39.1447 43.365C39.046 42.6954 38.4624 42.1907 37.7869 42.1907H28.9009C28.2257 42.1907 27.6421 42.6954 27.5434 43.365L27.1002 46.3752L20.5867 45.9096L20.3554 42.5882C20.3084 41.9154 19.7881 41.3801 19.1182 41.3153L10.6948 40.5017C10.6512 40.4975 10.6194 40.9628 10.5759 40.9628L10.5645 42.7882L17.6983 43.9408L17.9319 47.2919C17.9791 47.9703 18.5255 48.5188 19.2031 48.5676L28.1736 49.2087C28.2075 49.211 28.241 49.2124 28.2745 49.2124C28.9486 49.2124 29.5313 48.7074 29.63 48.0379L30.0858 44.9405H36.6023L37.0582 48.0379C37.1566 48.7072 37.7399 49.2122 38.415 49.2122C38.448 49.2122 38.4811 49.211 38.5134 49.2087L47.485 48.5676C48.1624 48.5188 48.709 47.9703 48.7562 47.2919L48.9896 43.9408L56.1204 42.7831L56.1088 40.9623Z" fill="white"/>
<path d="M10.5757 27.198V38.2751V39.682V40.9624C10.6009 40.9626 10.626 40.9635 10.6509 40.9659L19.0734 41.7795C19.5145 41.8222 19.8603 42.1779 19.891 42.6209L20.1507 46.3458L27.4977 46.8711L28.0038 43.4331C28.0694 42.9874 28.451 42.657 28.9011 42.657H37.787C38.2368 42.657 38.6185 42.9874 38.6841 43.4331L39.1902 46.8711L46.5374 46.3458L46.7968 42.6209C46.8278 42.1779 47.1733 41.8224 47.6145 41.7795L56.0337 40.9659C56.0586 40.9635 56.0835 40.9626 56.1086 40.9624V39.8641L56.1121 39.8629V27.198C57.2981 25.7021 58.4212 24.0521 59.2816 22.6639C57.9667 20.4211 56.3555 18.4169 54.6334 16.56C53.0362 17.3655 51.4848 18.2779 50.0196 19.2489C49.2864 18.5188 48.4606 17.9215 47.6494 17.2972C46.8524 16.6558 45.9543 16.1856 45.1024 15.6377C45.356 13.7454 45.4814 11.8824 45.5319 9.93811C43.3339 8.82981 40.99 8.09497 38.6191 7.56717C37.6726 9.16109 36.807 10.8872 36.053 12.5746C35.159 12.4249 34.2609 12.3694 33.3615 12.3587V12.3573C33.3552 12.3573 33.3494 12.3587 33.3441 12.3587C33.3385 12.3587 33.3326 12.3573 33.3271 12.3573V12.3587C32.4261 12.3694 31.5286 12.4249 30.6344 12.5746C29.8809 10.8872 29.0158 9.16109 28.0678 7.56717C25.6981 8.09497 23.3539 8.82981 21.1562 9.93811C21.2064 11.8824 21.3319 13.7454 21.5862 15.6377C20.7327 16.1856 19.8357 16.6558 19.0385 17.2972C18.2285 17.9215 17.4012 18.5188 16.6678 19.2489C15.2026 18.2779 13.6517 17.3655 12.054 16.56C10.3319 18.4169 8.72165 20.4211 7.40625 22.6639C8.44002 24.2896 9.54886 25.9237 10.5757 27.198Z" fill="#478CBF"/>
<path d="M48.5527 43.5147L48.2919 47.2594C48.2605 47.7108 47.9021 48.07 47.4516 48.1025L38.4802 48.7438C38.4584 48.7454 38.4365 48.7461 38.4148 48.7461C37.969 48.7461 37.5844 48.4183 37.5185 47.9698L37.004 44.4742H29.6838L29.1693 47.9698C29.1002 48.4403 28.6805 48.7785 28.2076 48.7438L19.2362 48.1025C18.7858 48.07 18.4274 47.7108 18.396 47.2594L18.1352 43.5147L10.5618 42.7831C10.5653 43.5986 10.5757 44.4919 10.5757 44.6698C10.5757 52.6835 20.7222 56.5353 33.3285 56.5796H33.3438H33.3594C45.9657 56.5353 56.1086 52.6835 56.1086 44.6698C56.1086 44.4887 56.1196 43.599 56.1233 42.7831L48.5527 43.5147Z" fill="#478CBF"/>
<path d="M26.4803 32.7856C26.4803 35.5953 24.208 37.8713 21.4046 37.8713C18.6025 37.8713 16.3296 35.5953 16.3296 32.7856C16.3296 29.9777 18.6025 27.7028 21.4046 27.7028C24.208 27.7028 26.4803 29.9777 26.4803 32.7856Z" fill="white"/>
<path d="M25.2589 33.0871C25.2589 34.9507 23.7513 36.4612 21.8898 36.4612C20.0292 36.4612 18.5206 34.9507 18.5206 33.0871C18.5206 31.2234 20.0292 29.7115 21.8898 29.7115C23.7513 29.7115 25.2589 31.2234 25.2589 33.0871Z" fill="#414042"/>
<path d="M33.3436 38.334C32.4412 38.334 31.7098 37.6677 31.7098 36.8464V32.1649C31.7098 31.3442 32.4412 30.6772 33.3436 30.6772C34.2459 30.6772 34.9789 31.3442 34.9789 32.1649V36.8464C34.9789 37.6677 34.2459 38.334 33.3436 38.334Z" fill="white"/>
<path d="M40.2078 32.7856C40.2078 35.5953 42.48 37.8713 45.2839 37.8713C48.0857 37.8713 50.3584 35.5953 50.3584 32.7856C50.3584 29.9777 48.0857 27.7028 45.2839 27.7028C42.48 27.7028 40.2078 29.9777 40.2078 32.7856Z" fill="white"/>
<path d="M41.4293 33.0871C41.4293 34.9507 42.9365 36.4612 44.7966 36.4612C46.6586 36.4612 48.1657 34.9507 48.1657 33.0871C48.1657 31.2234 46.6586 29.7115 44.7966 29.7115C42.9365 29.7115 41.4293 31.2234 41.4293 33.0871Z" fill="#414042"/>
</g>
</g>
<defs>
<clipPath id="clip0_39_1214">
<rect width="158" height="64" fill="white"/>
</clipPath>
</defs>
</svg>
