<svg width="19" height="18" viewBox="0 0 19 18" fill="none" xmlns="http://www.w3.org/2000/svg">
<path d="M17.7388 0.11063C17.9598 0.271345 18.0502 0.48563 18.01 0.753487L15.4385 16.1821C15.4051 16.3763 15.2979 16.5269 15.1171 16.6341C15.0234 16.6876 14.9196 16.7144 14.8057 16.7144C14.7321 16.7144 14.6517 16.6977 14.5647 16.6642L10.0144 14.8059L7.58364 17.7691C7.4631 17.9231 7.29904 18.0001 7.09145 18.0001C7.00439 18.0001 6.93073 17.9867 6.87047 17.96C6.74323 17.9131 6.63944 17.8327 6.55908 17.7189C6.48542 17.6117 6.44859 17.4912 6.44859 17.3573V13.8517L15.1272 3.21442L4.38944 12.5057L0.421805 10.8785C0.174037 10.7847 0.0401088 10.6006 0.0200195 10.326C0.00662667 10.0582 0.11377 9.86063 0.341448 9.7334L17.0557 0.0905405C17.1562 0.0302724 17.2633 0.000138283 17.3772 0.000138283C17.5111 0.000138283 17.6316 0.0369689 17.7388 0.11063Z" fill="white"/>
</svg>
